/* XPM */
static char *a12220033dbf4116832da98efce99987M68tWLStsLvOGndF[] = {
/* columns rows colors chars-per-pixel */
"64 64 150 2 ",
"   c None",
".  c #11172D",
"X  c #141A2D",
"o  c #1B1E2F",
"O  c #1D242D",
"+  c #1D2130",
"@  c #20262E",
"#  c #242B2E",
"$  c #282E2D",
"%  c #2F332E",
"&  c #30362D",
"*  c #232531",
"=  c #292733",
"-  c #262A30",
";  c #2B2B33",
":  c #2C3131",
">  c #333433",
",  c #323930",
"<  c #3A3E3C",
"1  c #433D37",
"2  c #463B3B",
"3  c #4D4737",
"4  c #474D33",
"5  c #484F33",
"6  c #4C4439",
"7  c #584C3C",
"8  c #4A5033",
"9  c #515634",
"0  c #545A33",
"q  c #64563E",
"w  c #6A5F3D",
"e  c #5D633E",
"r  c #6C7336",
"t  c #7F773F",
"y  c #5A4641",
"u  c #5D4942",
"i  c #614B43",
"p  c #695444",
"a  c #6D5B42",
"s  c #60594B",
"d  c #735D44",
"f  c #775949",
"g  c #785949",
"h  c #7A6643",
"j  c #565A68",
"k  c #5F626D",
"l  c #805E4C",
"z  c #886E47",
"x  c #82634A",
"c  c #8B7347",
"v  c #8F7349",
"b  c #957A48",
"n  c #976D52",
"m  c #9D7253",
"M  c #A57557",
"N  c #AE7B58",
"B  c #B07F58",
"V  c #7F8639",
"C  c #7B8236",
"Z  c #888D37",
"A  c #86813E",
"S  c #8F853E",
"D  c #85883B",
"F  c #ABB03E",
"G  c #B0B63E",
"H  c #B5BB3F",
"J  c #BBC23F",
"K  c #D8DF3F",
"L  c #8D8341",
"P  c #958843",
"I  c #988148",
"U  c #A29742",
"Y  c #B3914F",
"T  c #BB9B4F",
"R  c #A78051",
"E  c #AD8552",
"W  c #B58657",
"Q  c #B38C52",
"!  c #BC8D57",
"~  c #B89450",
"^  c #BE9C53",
"/  c #A3A947",
"(  c #ABAC40",
")  c #BEAE47",
"_  c #B9A649",
"`  c #ACB24F",
"'  c #ADB357",
"]  c #898D6A",
"[  c #B88D62",
"{  c #C19457",
"}  c #C69D53",
"|  c #CB9F55",
" . c #C0A24E",
".. c #CDB74F",
"X. c #C9B64C",
"o. c #D7BC4F",
"O. c #D8BF4F",
"+. c #C1A251",
"@. c #CEA455",
"#. c #C6AB50",
"$. c #CEA952",
"%. c #D0A655",
"&. c #D1AB53",
"*. c #CEBA57",
"=. c #D4B153",
"-. c #D4B850",
";. c #D8B951",
":. c #C5C742",
">. c #C7CB41",
",. c #C8CD42",
"<. c #D3C14C",
"1. c #D9C64D",
"2. c #D7CB49",
"3. c #DCCA4D",
"4. c #DCD747",
"5. c #DBDC45",
"6. c #E0D74A",
"7. c #E2DA49",
"8. c #E4E546",
"9. c #E6EA45",
"0. c #E8EB45",
"q. c #EBEF4F",
"w. c #EAF244",
"e. c #F0F741",
"r. c #E3E756",
"t. c #E2E05A",
"y. c #E9E857",
"u. c #ECF357",
"i. c #EEF559",
"p. c #DFE47C",
"a. c #868991",
"s. c #B49584",
"d. c #B9BD95",
"f. c #B2B5BB",
"g. c #C29C81",
"h. c #D4D894",
"j. c #DCE097",
"k. c #EAEF97",
"l. c #F6FA9D",
"z. c #F8FC9A",
"x. c #DDC9BC",
"c. c #F9FCA5",
"v. c #F6F4D0",
"b. c #FEFFDC",
"n. c #F8F6E3",
"m. c #FCFDE7",
"M. c #F0F0F2",
"N. c #FEFFF2",
"B. c #FFFFFE",
"V. c #F9F4F4",
/* pixels */
"                                                                                                                                ",
"                                                                                                                                ",
"                                                                                                                                ",
"                                                                                                                                ",
"                                                                                                                                ",
"                                                                                                                                ",
"                                                                                                                                ",
"                                                                                                                                ",
"                                                                                                                                ",
"                                                                                                                                ",
"                                                                                                                                ",
"                                                                                                                                ",
"                                                                                                                                ",
"                                                                                                                                ",
"                                                                                                                                ",
"                                                                                                                                ",
"                                                                                                                                ",
"                                                                                                                                ",
"                                                                                                                                ",
"                                                                                                                                ",
"                                                                                                                                ",
"                                                                                                                                ",
"                                                                                                                                ",
"                                                                                                                                ",
"                                                                                                                                ",
"                                                                                .                                               ",
"                                                                              - 8 : X                                           ",
"                                                                              , >.,.V ,                                         ",
"                                                                            . $ ) 3.0.P *                                       ",
"                                                                          . j a.s U O.Y 1                                       ",
"                                                                  . @ & & O j M.f.< q > *                                       ",
"                                                              X X 9 ` j.j.' 0 k d./ O .                                         ",
"                                                              . 9 K z.B.B.b.r.S % r #                                           ",
"                                                            . 4 J e.c.V.x.n.i.2.7 o X                                           ",
"                                                        . . ; ( G C ] s.g.v.u.8.$.q .                                           ",
"                                                    X $ 0 t R I - 6 3 d [ t.w.9.=.h X                                           ",
"                                                  X e h.k.y.;.a X c <.5...4.w.7.&.Y =                                           ",
"                                                . 0 p.B.N.y.7.A O * w F 9.w.0.o.@.Q =                                           ",
"                                                X Z z.m.l.*.+.:.5 9 6 >  .1.<.@.! m =                                           ",
"                                                = _ q.u.w.2.W d : H L ; T ! N N N f +                                           ",
"                                                ; T 0.w.w.w.#.M l a * 0 5.-.W N g * X                                           ",
"                                                ; T 6.w.w.8.Q ^ ..#.D H w.3.! M p * X                                           ",
"                                                * b &.6.w.9.<.8.w.w.w.w.w.3.! N N y .                                           ",
"                                                  6 } &.1.7.0.w.w.w.w.0.6.$.W N M 2 X                                           ",
"                                                  + c %.@.$.=.1.3.3.3.o.&.{ N N g + X                                           ",
"                                                  . - z } %.%.@.@.@.@.| { B n i * X                                             ",
"                                                    X + 2 p v E ~ Q E x u y ; X X X                                             ",
"                                                        . . + = ; = * + . . X                                                   ",
"                                                                                                                                ",
"                                                                                                                                ",
"                                                                                                                                ",
"                                                                                                                                ",
"                                                                                                                                ",
"                                                                                                                                ",
"                                                                                                                                ",
"                                                                                                                                ",
"                                                                                                                                ",
"                                                                                                                                ",
"                                                                                                                                ",
"                                                                                                                                ",
"                                                                                                                                ",
"                                                                                                                                ",
"                                                                                                                                ",
"                                                                                                                                "
};
