/* XPM */
static char *_1456ecb984f40d3a92325688e88c80300lEsXnJZbNL3zKT[] = {
/* columns rows colors chars-per-pixel */
"32 48 190 2 ",
"   c None",
".  c #151C2E",
"X  c #1A1E2F",
"o  c #1E2230",
"O  c #232533",
"+  c #2A2936",
"@  c #2E2C3A",
"#  c #312E3B",
"$  c #2F3039",
"%  c #363136",
"&  c #35323D",
"*  c #3D353A",
"=  c #3F393F",
"-  c #383236",
";  c #443A3C",
":  c #4B3E3E",
">  c #42373C",
",  c #4E413D",
"<  c #53433F",
"1  c #352C42",
"2  c #3C3440",
"3  c #3F3A42",
"4  c #413345",
"5  c #493644",
"6  c #433B43",
"7  c #4B3D44",
"8  c #47354A",
"9  c #4B3649",
"0  c #4E3B4A",
"q  c #553D45",
"w  c #563F4F",
"e  c #583D53",
"r  c #6B3F47",
"t  c #683F4B",
"y  c #434445",
"u  c #4A4445",
"i  c #4C4548",
"p  c #544243",
"a  c #5A4444",
"s  c #574940",
"d  c #5C4A42",
"f  c #55454B",
"g  c #5C424D",
"h  c #5A4D4F",
"j  c #554A4D",
"k  c #5A534D",
"l  c #5E4C50",
"z  c #5E5151",
"x  c #624C44",
"c  c #63454D",
"v  c #6A414A",
"b  c #714A44",
"n  c #73414C",
"m  c #79444A",
"M  c #6C5444",
"N  c #675748",
"B  c #735A46",
"V  c #7A5E47",
"C  c #7C544C",
"Z  c #745B49",
"A  c #7C5C4A",
"S  c #705744",
"D  c #624E51",
"F  c #6D4358",
"G  c #764553",
"H  c #645353",
"J  c #6C5656",
"K  c #675C53",
"L  c #705757",
"P  c #745B5A",
"I  c #7A5D5C",
"U  c #7C644C",
"Y  c #76604A",
"T  c #696559",
"R  c #75625C",
"E  c #7D645F",
"W  c #7B6A5E",
"Q  c #7A4761",
"!  c #7F6A61",
"~  c #85494F",
"^  c #83574E",
"/  c #844A57",
"(  c #954D5B",
")  c #984D57",
"_  c #8A5159",
"`  c #9F505C",
"'  c #A55157",
"]  c #A4525B",
"[  c #A9585B",
"{  c #84644B",
"}  c #8C694C",
"|  c #926E4E",
" . c #99714F",
".. c #8A6651",
"X. c #836D51",
"o. c #8C6C51",
"O. c #82625F",
"+. c #956155",
"@. c #8C7354",
"#. c #877053",
"$. c #9D7451",
"%. c #997B55",
"&. c #967958",
"*. c #A07651",
"=. c #A57C54",
"-. c #AA7D53",
";. c #A07E5E",
":. c #856561",
">. c #896763",
",. c #856A63",
"<. c #896B65",
"1. c #906D66",
"2. c #8B7167",
"3. c #8B7666",
"4. c #947269",
"5. c #99766C",
"6. c #9C7B6E",
"7. c #9D7F70",
"8. c #A27F71",
"9. c #AD8256",
"0. c #AB8459",
"q. c #B08155",
"w. c #B2895B",
"e. c #89836C",
"r. c #8D8A6F",
"t. c #96886C",
"y. c #8D8D70",
"u. c #9E8171",
"i. c #9B8F72",
"p. c #9C9674",
"a. c #959474",
"s. c #A88868",
"d. c #A58373",
"f. c #A98675",
"g. c #AB8A75",
"h. c #AE8B78",
"j. c #A78B74",
"k. c #B18E7A",
"l. c #AD9474",
"z. c #AB9A79",
"x. c #B5937A",
"c. c #B9967C",
"v. c #BD9A7D",
"b. c #B39878",
"n. c #A2A07B",
"m. c #BBA17B",
"M. c #B4A97F",
"N. c #C19E7D",
"B. c #C4A27F",
"V. c #C5AA7F",
"C. c #BBA482",
"Z. c #C29F80",
"A. c #C5A381",
"S. c #C9A682",
"D. c #CCAA83",
"F. c #C4AD81",
"G. c #D0AE85",
"H. c #C9B388",
"J. c #D5B386",
"K. c #D4B588",
"L. c #D9B788",
"P. c #D6BC8B",
"I. c #DBBA89",
"U. c #D8B687",
"Y. c #E1BF8B",
"T. c #DDC18D",
"R. c #C7C490",
"E. c #DCC592",
"W. c #DACC95",
"Q. c #DED29A",
"!. c #E3C28D",
"~. c #E3C690",
"^. c #E6CB93",
"/. c #E9CF95",
"(. c #E8CC93",
"). c #EAD296",
"_. c #EBD598",
"`. c #E5DB9E",
"'. c #EDDD9E",
"]. c #E3D79B",
"[. c #F0DD9E",
"{. c #EFE09F",
"}. c #EDE3A2",
"|. c #E6E0A0",
" X c #F1E5A3",
".X c #F2E6A3",
"XX c #F2E9A6",
"oX c #F3EBA6",
"OX c #F5EEA9",
"+X c #F6F1AA",
/* pixels */
"                                                                ",
"                                                                ",
"                                                                ",
"                                                                ",
"                                                                ",
"                                                                ",
"                          6 $ k k $ i                           ",
"                        y l.b.U.L.l.l.y                         ",
"                    @ 6 T J.V._.{.(.!.K 6 @                     ",
"                    3 2.l.m.i.]..X^.(.j.2.3                     ",
"                  # <.d.N.U.h.].oX/.!.D.8.<.#                   ",
"                @ ! g.d.G.!.G.`..X!.!.D.d.g.! @                 ",
"                R h.c.f.N.(.).'.}.K.Y.D.g.v.h.R                 ",
"              & 7.A.J.f.S.!./..XQ.k.U.D.d.U.A.7.&               ",
"          @ D l u.D.I.h.D.!./..X}.P.!.J.h.U.S.u.l D @           ",
"          f O.H f.Z.G.g.G.I.I.XX+X'.!.B.f.J.A.g.H O.f           ",
"        # P L H h.S.J.g.I.A.H..X.X_.!.v.f.A.A.h.H L P #         ",
"        & :.>.J g.D.L.h.I.D.C.'.XX~.!.L.c.D.v.x.D :.:.&         ",
"        7 5.5.:.c.A.D.h.L.!.P.XXOXE.D.I.v.I.A.x.E 5.5.7         ",
"        D 6.4.<.c.S.J.g.I.!.).OXXXC.B.I.x.J.S.x.<.4.d.H         ",
"        I d.<.4.k.A.I.x.T.I.F.}.}.C.J.U.h.L.S.k.4.<.d.P         ",
"      & P d.:.,.h.A.L.x.P.I.x.W.oX^.!.T.b.I.G.k.,.:.d.P @       ",
"      2 P 6.:.<.x.v.A.h.G.).~.}.oX/.(.D.x.Y.G.k.<.:.6.E i       ",
"      + I d.<.<.x.Z.I.v.E. X}.XXoX}.[.P.6.I.G.x.<.:.5.P @       ",
"      + I 8.E 2.g.v.I.j.Q.R.y.n.z.y.R.W.! J.B.x.6.,.d.:.+       ",
"      @ I d.P ! ! m.W.r.p.y O > = O y a.e.T.m.! ,.P d.:.@       ",
"      # O.d.J 2.h t.`.T u , 1 p 7 1 : : T |.i.h 2.J 5.E #       ",
"      6 >.<.h g.l.z.e.& x o.N d d N X.x & r.M.j.f.h <.>.6       ",
"      H >.I 7 l.T.t.& 1 ; } N B B Z } > 1 & p.I.d.7 :.>.H       ",
"      7 :.1.H F.3.6 s U U M B s s U B Y X.s y t.m.H 4.:.7       ",
"      f I 2.2.F.K : { $.-. .=.=.=.9.=.9.-...a i m.W ,.I f       ",
"      D P <.R i 6 4 > < < p a p p p p < < 7 7 2 u E ! E H       ",
"      6 R u.u @ F Q 8 x q / _ F G / G a x 8 Q G # h d.E f       ",
"      O j z * 5 _ ] v | b ' [ ~ _ [ ) b | v ] ( 5 * H h #       ",
"        . + d q ' ] t { x ^ ^ C C +.C x | m [ ( q x + .         ",
"          : o.c ( ` r V s U %.0.w.0.{ s { v [ ( g ..7           ",
"          x $.g ` ] r s * p V M M { Z > < n [ ] c $.d           ",
"        . M *.5 ~ ~ n 9 0 w e 8 4 8 8 0 8 m ~ G 5 $.x           ",
"        X V  .; U X.X.#.%.s.;.&.&.X.#.%.@.X.X.Y > | Z X         ",
"        o B | x $.$.$.| $.q.=.$.| } $.| *.$.$.$.p { V o         ",
"          * M , M B M | -.$.{ V S V -.q.$.M B Z ; d d           ",
"            O   + % O > < - o X   O < M ; O %   .               ",
"                                                                ",
"                                                                ",
"                                                                ",
"                                                                ",
"                                                                ",
"                                                                "
};
