/* XPM */
static char *_33d1c1d1797493da2be2154dbe74e91Moq0MQ2S5bhK1llK[] = {
/* columns rows colors chars-per-pixel */
"64 96 209 2 ",
"   c None",
".  c #0F172B",
"X  c #141A2D",
"o  c #181D2F",
"O  c #10172B",
"+  c #1A1F31",
"@  c #171D30",
"#  c #1D2132",
"$  c #192136",
"%  c #242533",
"&  c #2C2A35",
"*  c #2B2C39",
"=  c #262838",
"-  c #312E36",
";  c #322E3A",
":  c #2C323D",
">  c #3C3437",
",  c #34323C",
"<  c #3A343B",
"1  c #37353A",
"2  c #443A3D",
"3  c #4A3D3D",
"4  c #42363D",
"5  c #4F413E",
"6  c #44403E",
"7  c #53433E",
"8  c #5B493E",
"9  c #634D3F",
"0  c #1F3A4D",
"q  c #282C45",
"w  c #29324C",
"e  c #3D3A41",
"r  c #393445",
"t  c #2B3A55",
"y  c #2B3752",
"u  c #3A3855",
"i  c #423B43",
"p  c #4B3E45",
"a  c #423B5B",
"s  c #2B435B",
"d  c #29475C",
"f  c #3B4358",
"g  c #3E4244",
"h  c #3A4564",
"j  c #2A5265",
"k  c #2C596C",
"l  c #3C5373",
"z  c #3E5A79",
"x  c #2F5567",
"c  c #386779",
"v  c #4B4245",
"b  c #4E4349",
"n  c #464547",
"m  c #544442",
"M  c #5D4A42",
"N  c #53444A",
"B  c #534B4B",
"V  c #5B4A4E",
"C  c #584943",
"Z  c #4E514D",
"A  c #56524B",
"S  c #5C5652",
"D  c #534855",
"F  c #634E42",
"G  c #655042",
"H  c #6B5444",
"J  c #6C524B",
"K  c #765A46",
"L  c #755A4D",
"P  c #7B5D4D",
"I  c #755949",
"U  c #644D51",
"Y  c #635454",
"T  c #6D5356",
"R  c #655B53",
"E  c #6A5A56",
"W  c #6D5B58",
"Q  c #735758",
"!  c #745B5A",
"~  c #7C5E5D",
"^  c #755855",
"/  c #79694E",
"(  c #78634C",
")  c #68675A",
"_  c #74625C",
"`  c #7C625E",
"'  c #7B6D57",
"]  c #7E745B",
"[  c #7D7056",
"{  c #435B7C",
"}  c #475475",
"|  c #42496B",
" . c #797162",
".. c #45607E",
"X. c #83644B",
"o. c #8D694D",
"O. c #89674C",
"+. c #926D4D",
"@. c #9B734F",
"#. c #96704E",
"$. c #81615F",
"%. c #876553",
"&. c #936C52",
"*. c #8C7654",
"=. c #83735C",
"-. c #9D7351",
";. c #937956",
":. c #A17651",
">. c #A47952",
",. c #AC7D54",
"<. c #846461",
"1. c #8A6763",
"2. c #846963",
"3. c #8D6A65",
"4. c #916E67",
"5. c #897365",
"6. c #95736A",
"7. c #99766C",
"8. c #9C7A6E",
"9. c #977A6D",
"0. c #9E7F70",
"q. c #A07E6E",
"w. c #A17E71",
"e. c #A6855B",
"r. c #B48355",
"t. c #B88556",
"y. c #B28C5C",
"u. c #BA925E",
"i. c #97846A",
"p. c #9E8171",
"a. c #908F71",
"s. c #949474",
"d. c #A38B6F",
"f. c #B49362",
"g. c #B99363",
"h. c #A48373",
"j. c #A98675",
"k. c #AC8977",
"l. c #AF8C79",
"z. c #B18E7A",
"x. c #B18E76",
"c. c #A99776",
"v. c #B49277",
"b. c #B5927B",
"n. c #B9967B",
"m. c #BD9A7D",
"M. c #B59D7D",
"N. c #B19061",
"B. c #A7A57E",
"V. c #B8A37B",
"C. c #C19E7E",
"Z. c #C4A47E",
"A. c #C6A469",
"S. c #3C6A82",
"D. c #3D7B8F",
"F. c #3A7385",
"G. c #3D7F91",
"H. c #436986",
"J. c #43748D",
"K. c #447B92",
"L. c #447790",
"P. c #3E8293",
"I. c #448699",
"U. c #448B9D",
"Y. c #468597",
"T. c #458FA0",
"R. c #4491A1",
"E. c #4B97A4",
"W. c #51A8B1",
"Q. c #ADAB81",
"!. c #BBA381",
"~. c #BEA985",
"^. c #B6B286",
"/. c #C19F80",
"(. c #C5A381",
"). c #C9A683",
"_. c #CCAB83",
"`. c #C1AD87",
"'. c #D1AF85",
"]. c #CCB789",
"[. c #D4B386",
"{. c #D9B787",
"}. c #D9B788",
"|. c #DDBB8A",
" X c #D4B889",
".X c #E1BF8B",
"XX c #DAC28E",
"oX c #CCC893",
"OX c #D7C894",
"+X c #DDD49A",
"@X c #E4C28C",
"#X c #E8C68F",
"$X c #E6CA92",
"%X c #E8CE95",
"&X c #E5C790",
"*X c #EAD196",
"=X c #EBD699",
"-X c #EEDC9D",
";X c #E3D69B",
":X c #F3DD9D",
">X c #E8DFA1",
",X c #ECE4A3",
"<X c #EAE5A3",
"1X c #F1E3A1",
"2X c #F3EBA6",
"3X c #F5EEA9",
"4X c #F6F0AA",
"5X c #F9F3AB",
"6X c #EFE09F",
/* pixels */
"                                                                                                                                ",
"                                                                                                                                ",
"                                                                                                                                ",
"                                                                                                                                ",
"                                                                                                                                ",
"                                                                                                                                ",
"                                                                                                                                ",
"                                                                                                                                ",
"                                                                                                                                ",
"                                                                                                                                ",
"                                                                                                                                ",
"                                                                                                                                ",
"                                                    O       O . . O       O                                                     ",
"                                                    v A O # B ' ' B # O B R %                                                   ",
"                                                  # =.[.R i.}.@X@X|.i.R [.5.%                                                   ",
"                                                O R V.@X|.@X@X@X@X@X@X|.@XV.R O                                                 ",
"                                          O     O ' #X@X|.@X@X*X2X-X@X@X@X#X' O     O                                           ",
"                                        O e S 1 e d.@X'._ '.*X3X3X-X&X*X@X@Xd.e 1 S e O                                         ",
"                                          i h.h.` _.#X5.) XXXX3X3X*X@X=X%X@X_.` h.h.i                                           ",
"                                        # * 5.z.2.[.@Xd.c.p.^.3X4X1X@X&X-X@X[.2.l.5.* #                                         ",
"                                      # _ h.l.j.6.{.@X_.7.b.2X4X3X3X*X@X*X@X|.j.6.k.h._ #                                       ",
"                                  X . = 5.z.l.8.j.|.@X}.7.b.].2X4X1X1X@X@X@X@X[.8.8.z.5.= . X                                   ",
"                                X , Y 2.h.z.h.7.{.@X@X|.n.v.].3X4X-X@X@X@X@X@Xm.6.h.z.h.2.Y , X                                 ",
"                                O * 5.z.z.z.8.8.C..X@X@X@X@X-X4X4X-X@X@X@X@X@Xv.8.z.l.l.z.5.* O                                 ",
"                                = ` h.l.l.l.l.w.q.|.@X&X6X@X%X3X3X=X[.{.@X@X@Xn.j.l.n.z.l.h.` =                                 ",
"                              = ` z.z.z.m.m.l.j.7.}.@X-X=X&X&X2X3X,XOXb.|.@X@Xn.w.l.(.).b.l.z.` =                               ",
"                            O = h.z.l.).@X).l.8.v.@X@X%X=X=X=X3X4XoX!.h.Z.@X@Xv.7.l.).@X).l.z.h.= O                             ",
"                        o = ; = p.z.b.|.@X[.z.7.v.@X@X@X@X&X2X4X2X~.3.k._.@X@Xn.3.l.[.@X}.b.z.p.= ; = o                         ",
"                    X O = ! ! ; 0.z.'.|.@X|.b.7.v.@X@X@X@X,X1X3X3XOX!..X@X@X@X|.h.j.|..X|./.z.0.; ! ! = O X                     ",
"                  X * p N 3.~ , 0.b.(.(.@X|.b.w.n.@X@X@X&X=X*X3X3X4X-X@X@X@X|.C.h.h.|.[.n._.n.0., ~ 3.N p * X                   ",
"                    % T <.3.! b h.l.l.).@X'.z.k.C.@X@X@X|.@X1X4X3X3X2X&X@X@X@Xv.h.z.|..Xm.m.m.j.b ! 3.<.T %                     ",
"                  # e ` 1.<.e E z.l.z.[.}.b.k.7.m.@X@X}.v.XX2X3X3X3X4X=X@X@X}.m.7.l.).@X[.z.l.z.E e <.1.` e #                   ",
"                # N ` 1.3.U ; 8.z.l.b.|..X_.7.j.}.@X@Xv.`.1X3X3X3X1X,X-X@X.Xv.7.4.k.b.[.|.b.l.z.8.; U 3.1.` N #                 ",
"                o % V 1.3.p v ` j.l.b.|.@X}.7.v.|.@X}.7.M.OX3X*X1X1X&X%X@X@X|.C.j.b.(.m.}.b.l.j.` v p 3.1.V % o                 ",
"                  = ~ 6.6.T < S l.l.b.|.@X|.k.6.{.@X|.v.6.OX1X=X2X3X%X@X@X@X@X_.l.b.[.b.m.m.b.l.V , T 6.6.~ =                   ",
"                  p 1.8.h.3.T <.z.l.b.|.@X'.l.8.{.@X@X{.k.~.+X4X4X2X@X|.@X@X@X}.b.b.|.'.z.m._.b.Y N 3.6.0.3.p                   ",
"                o N 4.h.k.3.Q 2.z.m.m.}.'.C.z.h.{.@X@X|.n.!.<X4X3X3X-X(.Z.@X@X|.b.b.|..X/.l.m.b.<.T 3.w.8.6.N o                 ",
"                % ! 7.w.j.3.Q 2.n.}.m.m.(.}.z.7.{.@X@X@X&X1X4X3X3X2X,XOXq.}.@X|.b.b.|.@X|.m.b.z.2.Q 3.k.h.3.~ %                 ",
"              O < <.3.7.j.3.Q 1.m.(.b.m.|._.h.6.{.@X@X@X&X1X4X4X3X2X!.!.h.{.@X|.b.b.}.@X).).).z.2.Q 3.j.z.7.<.< O               ",
"                b 3.7.l.w.1.Q h.z.(.(.|.@X}.q.j.|.@X@X@X.X=X4X4X3X4XOX6.x.|.@X}.z.l.).@X).b./.z.h.Q 1.8.z.h.3.b                 ",
"              O N 1.8.l.7.~ Q j.z.b.m._..X}.8._.|.@X@X@XZ.].4X3X4X+X~.p.n.@X@Xn.7.z.(.|.|.b.l.l.j.Q ~ 6.h.h.3.N O               ",
"              N 1.1.8.z.w.T $.k.l.l.z.'.@X|.x.q. X=X@X[.z.OX+X4X4X>X!.v._.@X@X X7.n.|.@X|.b.l.l.k.$.T w.l.8.1.$.i               ",
"            # B Y 1.j.z.7.U Q 7.z.l.b.|.@X@X(.h.,X1X@Xm.7.7.].3X4X-X-X@X@X@X@X-X`.h.|.@X.X/.l.z.7.Q U 6.z.8.<.V i +             ",
"              O p 1.8.l.6.Q U 9.z.l.b.|..X[.j.p.~.[.@X|.'.8.!.2X4X2X*X@X@X@X@X[.M.8.}.@X}.[.b.z.9.U Q 7.l.w.3.b O               ",
"              i $.1.7.7.4.! 2.k.l.z.b.m.m.b.h.7.j.|.=X%X@XXX,X3X3X3X%X@X-X%X@XZ.6.C.@X@X[.C.z.l.k.2.! 8.l.6.1.6.N               ",
"            % Y U <.3.h.8.! U 4.b._.m.z.'.).z.z.[.=X2X*X@X*X-X-X4X3X*X@X%X&X@Xn.7.).@X@X@X(.l.z.4.U ! 3.h.8.<.E 2.=             ",
"            o = U 1.8.z.8.$.T h.m.m.b._..X.X(.h.{.%X=X-X=X3X1X2X3X4X2X*X*X*X@X[.3.C.@X@X@X[.z.l.h.T $.4.7.4.1.U = o             ",
"              % ~ 6.k.z.8.<.Q h.l.l.n.(.[.@X(.8.}.-X3X2X3X3X<X4X4X<X3X3X-X3X1X'.n h.[..X_._.n.n.h.T <.4.h.6.1.` %               ",
"            X % ~ 3.7.j.8.T ! z.l.z.l.(.@X@XC.7.;X4X2X<XoXQ.B.,X,XB.Q.oX<X2X4XOXe 0.m..X).l.b._.z.2.~ 6.j.8.1.~ % X             ",
"              % ~ 1.6.k.8.p Y z.z.h.8._.@X|.k.E ;X4XB.^.S g ^.) ) ^.g S ^.c.4X+Xe h.}.@X[.h.h.m.b.<.T 8.z.w.8.$.%               ",
"              = ~ 1.8.l.8.p Y z.h.R Z.@X@X%Xi.S ,XoXZ ) X o : 4 4 : o X ) Z oX,XS 2.@X@X@X_.R p.z.Y N 8.z.8.w.2.=               ",
"              = ~ 3.h.h.4.p Y k.B 5.d.V.1X<X) ^.Q.< # # + # # C m # + + # + , Q.^.A ;X-XM.d.5.B k.Y p 4.h.8.3.` =               ",
"              % ~ 3.k.k.3.p E h.< , < ].5X+XZ  .* 7 5 X r u = L J % u r o 2 > *  .Z +X5X].< , 1 h.E p 1.3.8.3.~ %               ",
"            O < <.3.8.k.` < 8.l.9.i 5.OX3X3Xs.% < 5 @.5 q u = P L = u q 5 @.7 < % s.4X4X;X5.i 9.l.8.< ` w.3.1.<.< O             ",
"            O N 3.1.7.0.N _ h.b.v.e v V.-XB.* - %.M C f.C $ = P %.= $ A f.C F %.- * B.2X].n i x.z.h._ N p.8.1.3.N O             ",
"              b 3.1.8.Y , b _ _.&X[.[.;X) # = = F &.K *.A.C % &.-.% C A.*.I %.F = = # ) <X X'.|.(._ b , Y h.1.3.b               ",
"            = T 3.1.3.Q ; Y 8.}.*X@X X X& + a u % I t.X.L N.< &.-.< f.%.X.r.H % u a + : +X X.X.X(.h.Y ; ! 4.1.1.Q =             ",
"          , _ ` $.1.1.$., = ) |.#X[.B 5.& $ q q $ # X.>.3 2 - :.>.- 6 5 >.X.% $ q q + : a.A XX@Xm.S = , <.7.1.$.~ _ ,           ",
"          e i i <.1.1.1.Q , Z.@Xc.d._ + 3 G H / ( M > -.,.3 % o.o.% 3 ,.-.> M L / / G - #  .V.c..Xv., Q 1.8.3.<.e i e           ",
"          X O N 3.1.3.8.6.e  X*Xi., i % F K / e.f.:.5 7 K H , < < - X.>.M 5 X.y.f.;.( M % n , i.#X_.< 3.8.4.1.3.N O X           ",
"            % ~ 1.~ 2.z.0.e +X:X5.% % C L P X.-.,.>.&.+.-.y.y.y.y.y.y.u.y.y.y.,.,.-.P P J = % ] @X}.S W b.2.~ 3.~ %             ",
"          O = ` 1.V ! j.9.R XXV.d., m L %.>.r.r.t.r.r.r.t.t.t.t.t.t.t.t.t.t.t.t.t.t.,.&.%.J < , _.V.c.V p.! Y 3.` = O           ",
"          # U 1.` e i 4.! i.i., E % < 3 p M G F F F F F F F F F F F F F F F G G F F G C 3 3 4 % B B B i ` i i 2.3.U #           ",
"          = V T 3.! 7.z.W < % o q w w w = X # 2 & $ w q y q y $ $ w $ y q w $ & 2 # @ q w w w w X e 9.h.l.7.! h.~ p #           ",
"          o # U Q 5.z.l.6.N # q } { { } h = 3 P p y { l { l H.y s L.x S.h z t m P 3 = | { { { | = # Y 8.l.z.5.` ` % X           ",
"            , V * 2.b.2.= # % t { { H.H.z * H &.7 d Y.Y.I.U.E.j k W.Y.I.c K.j 9 &.M * z J.J.J.H.y % + , 8.z.2.= T N             ",
"          o # # Y 8.6.Y o 4 4 t H.K.U.U.D.: o.r.9 j T.R.E.Y.W.j c W.E.U.F.P.j 9 r.o.* z J.L.L.Y.s 4 4 o W 6.8.` = *             ",
"              % b = B b ; M < w ..J.L.L.c * -.t.9 j U.K.I.c W.j k E.E.T.J.I.j 9 t.:.: D.U.Y.H.J.y < m < b B = B =               ",
"                X X # % p P 3 t Y.I.I.K.S.: X.,.F 0 F.c F.k G.0 0 D.F.D.k F.0 F t.-.: P.R.I.L.U.s 2 L p % # X O                 ",
"                  o o & v P 7 s U.U.I.L.S.: F >.F < ( [ =.] ] / / ] ] ] [ ( < F r.o.: D.I.J.H.K.y 3 P C < o o                   ",
"                  X % J J -.F t K.U.J.J.S.: F >.F > ( *.*.*.e.g.g.g.g.e.*.( > F r.P * S.L.J.J.H.w 3 &.%.L %                     ",
"                  X % P &.r.H u J.L.J.U.P.: F >.G ; L &.:.@.>.r.,.,.,.>.o.L ; F >.G : G.R.T.R.J.h m ,.&.P % X                   ",
"                  X % -.>.>.v h H.L.J.J.G.: 8 >.M - M K :.,.>.>.>.>.t.t.r.-.2 5 -.7 : D.I.U.T.K.l i >.:.%.% X                   ",
"                  X % >.>.-.* l J.R.T.J.H.w % 7 % o < 3 8 8 & % % & 8 F F 3 # % 2 % s J.L.H.I.Y.l * :.r.-.% X                   ",
"                  X % >.r.:.* l L.R.R.L.J.H.s t t y w t t t t y t t t t t y y t t t J.R.T.H.L.L.h * >.>.-.% X                   ",
"                  X % :.r.>.% q s j j d j j s t f f D } l l l y t t t t t u f f t t j j j d j j q & >.>.-.& X                   ",
"                  O 2 ,.>.>.% > H / / / / / / / ;.u.g.f.=.] [ / / / / / / ;.u.y./ / / / / / / H > % >.:.:.7 O                   ",
"                  O G r.-.>.% 3 e.;.*.*.*.*.e.e.*.e.g.f.g.g.g.g.g.g.e.*.*.*.*.;.f.e.*.*.*.*.*.X.2 % >.O.-.F O                   ",
"                  O G >.P >.- m -.-.@.:.:.-.@.+.+.>.,.,.,.,.>.-.@.@.+.O.+.:.+.o.-.>.@.:.:.-.:.+.m & >.K :.G O                   ",
"                  O M @.K t.G C -.,.t.>.>.t.#.K o.,.t.,.&.-.-.P K K K K #.t.#.K o.,.t.>.>.r.t.,.M & -.H >.G O                   ",
"                  X 4 F H t.F m K K H C C K :.>.r.t.t.r.r.r.t.,.r.>.>.t.t.r.t.t.,.-.K F M F o.-.F < &.F >.F O                   ",
"                  X & % 5 K % = 7 X.o.o.M 8 +.>.,.,.:.@.G F M - 8 - & P ,.r.t.t.,.+.8 F +.o.K p # - 4 , M < X                   ",
"                    X X # #   X o & & & o o & m I 7 & & X O O   O   O # 5 X.o.+.M & o o & - %   o X   X O O                     ",
"                                                                                                                                ",
"                                                                                                                                ",
"                                                                                                                                ",
"                                                                                                                                ",
"                                                                                                                                ",
"                                                                                                                                ",
"                                                                                                                                ",
"                                                                                                                                ",
"                                                                                                                                ",
"                                                                                                                                ",
"                                                                                                                                ",
"                                                                                                                                ",
"                                                                                                                                "
};
