/* XPM */
static char *_7ecc638dba544628aec41c1365b4d61arhC8yYnWyYGiU5t[] = {
/* columns rows colors chars-per-pixel */
"64 64 5 1 ",
"  c #9BB94E",
". c #BFBA5B",
"X c #79A863",
"o c #679175",
"O c white",
/* pixels */
"     ..........XXXXXXXXXXXXXXXXXXXXXXXXXXXXXXXXXXXXXXXXXXXXXXXXX",
"      ...... XXX   XXXXXXXXXXXXXXXXXXXXXooooXXXXXXXXXXXXXXXXX   ",
"  .........            XXXXXXXXXXXXXXXXoooooo        ooooXXX    ",
"...........       XXXXXXXXXXXXXXXXXoooXooooooooooo  oooooooX    ",
"..........          XXXXXXXXXXXXXXooooooooooooooooooo...oooo   .",
"     .....            XXXXXXXXXXXooooo....oooo....oo.....oooo...",
"      ..... ..            XXXXXXXooo.......oo.................  ",
"        .......           XXXXXoooo........o..................  ",
"..       ...   .           ......o............................ .",
"...                       ..  ..................................",
"...   ..                  .    ........   .....  ....  .........",
"...  .....                         ...     ..      .    ........",
"...................                 ..     .            ........",
".........                                  .            .....   ",
"            XXXXXX                                              ",
"          XXXXXXXXX XXXX      ...                               ",
"        XXXXXXXXXXXXXXXXX   ......          XXX                 ",
"       XXXXXXXXXXXXXXXXXX.............XXX  XXXXX                ",
"     XXXXXX     XXXXXXXXXXXX.........XXXXXXX  XXX      XXX      ",
"   XXXXXXX       XXX   XXXXXXX...XXXXX  XXX    XXX    XXXXX   XX",
"X                XX                                  XXXXXXXXXXX",
"XXXX                                  XX     XXXX    XXXXXXXXXXX",
"                       oooooo   ooo XXXXX XXXXXXXX  XXXX   XXXXX",
"        ooooo  ooo   ....ooooo oooooXXXXXXXXXXXXXXXXXXX         ",
"       oooooooooooo .......oooooo..ooXXXXXXXXXXXXXXXXXX         ",
"     ooo....ooo..oo.........oooo....oo..XXX  XX   XXXX          ",
"  oooo.......................oo..........XX        XXXXXXXXXX   ",
".oo....................XXX....o..  ........        XXXXXXXXXXXXX",
"..........XXX.........XXXXX.....    .........      XXXXX........",
"      ..XXXXXXX..XXXXXXXXXXXXX           ...      XX............",
"            XXXXXXXXXXXXXXXXXXXXX                               ",
"                XXXXXXXXXXXXXXXXXXXX   XXXXXX                   ",
"...                 XXXXXXXXXXXXXXXXXXXXXXXXX                  .",
"....            XXXXXXX   XXXXXXXXXXXXXXX...X                 ..",
".......    XXXXXXXXXXX     XXXXXXX      .....             ......",
"   .....                   XXXX     ..  ......              ....",
"    .....                         ............                . ",
"                                 ........XXX......              ",
"                                XXXXXXXXXXXXX..........XXX      ",
"                               XXXXX  XXXXXXXXXXXXXXXXXXXXXXXXX ",
"XXXXXXXX                    XXXXXX     XXXXXXXXXXXXXXXXXXXXXXXXX",
"XXXX                                      XXXXXXXXXXXXXXXXXXXXXX",
"                                           XXX    XXXXXXXXXXXX  ",
"                  ooooo    ooooo      ...  XX      X   XX       ",
"                oooooooo  ooooooo    ..... XX                   ",
"               ooo...ooooooo....oo  ........XX             .....",
"     ooooo  ooooo......oooo.......o .........         ..........",
"    ooooooooooooo........o...................      ............ ",
"oo ooo..ooooo..ooo.............................    ..........   ",
"ooooo....ooo.....o.............................                o",
"o..oo.........................    .....XX.........             o",
".....................XXXX....      ...XXXX.........        ..ooo",
".....   .....    ...XXXXXX  .       XXXXXX......         .......",
"....     ...   XXXXXXXXXXX       XXXXXXXXX             .........",
"..       ...  XXXXXXXXXXX       XXXXXXXXXXX           ...   ....",
"           .  XXXXXXXXXXXXXXX  XXXXXX  XXXXX        ....     ...",
"            XXXXXXXXXXXXXXXXXXXXXXXX     XXXXX                  ",
"      XXXXXXXXXX   XXXXXXXXXXXXXXXXX                            ",
"         XXXXXX     XX   XXXXXXX  XX                  XXX       ",
"            XXX     X      XXXX    XX                XXXXX      ",
"      ..                                      XXX   XXXXXX      ",
"     ....    ....                            XXXXXXXXXXXXX      ",
"   ................        XXXX             XXXXXXXXXXXXXXXXX   ",
"XX..............XXXX  XXXXXXXXXXX  XXXX    XXXXXXXXXXXXXXXXXXXXX"
};
