/* XPM */
static char *result[] = {
/* columns rows colors chars-per-pixel */
"64 64 166 2 ",
"   c #121729",
".  c #161B2B",
"X  c #191E2D",
"o  c #1A1F31",
"O  c #1C202E",
"+  c #1C2132",
"@  c #1F2539",
"#  c #232632",
"$  c #262934",
"%  c #2A2C36",
"&  c #20263A",
"*  c #22293E",
"=  c #2B2E38",
"-  c #2E313A",
";  c #33333B",
":  c #39363E",
">  c #3C3B3E",
",  c #242B41",
"<  c #2B334B",
"1  c #373940",
"2  c #3D3C41",
"3  c #323B57",
"4  c #343D5B",
"5  c #423E43",
"6  c #35405D",
"7  c #3A4566",
"8  c #3C4668",
"9  c #3D4C6C",
"0  c #464144",
"q  c #4A4546",
"w  c #4D4947",
"e  c #454749",
"r  c #4F4749",
"t  c #4D4C4B",
"y  c #524C4A",
"u  c #584E4E",
"i  c #57514C",
"p  c #5A534D",
"a  c #5C5350",
"s  c #5B5B56",
"d  c #5E5E58",
"f  c #535351",
"g  c #655955",
"h  c #6D5F59",
"j  c #615553",
"k  c #63625B",
"l  c #6C6458",
"z  c #69685F",
"x  c #6C6357",
"c  c #74675C",
"v  c #7A6E5D",
"b  c #756A5B",
"n  c #7D715F",
"m  c #424E72",
"M  c #435175",
"N  c #455A7A",
"B  c #47607E",
"V  c #6D6B62",
"C  c #706E63",
"Z  c #7B6B61",
"A  c #7F7361",
"S  c #777468",
"D  c #7A776A",
"F  c #7E7B6D",
"G  c #6E717B",
"H  c #847464",
"J  c #887467",
"K  c #867965",
"L  c #8A7C67",
"P  c #8B7669",
"I  c #837E6D",
"U  c #8D7D69",
"Y  c #947D6D",
"T  c #96836C",
"R  c #98846E",
"E  c #9B8A6E",
"W  c #858171",
"Q  c #8B8674",
"!  c #9C8471",
"~  c #938A74",
"^  c #9E8D70",
"/  c #95907A",
"(  c #9A947D",
")  c #A38B74",
"_  c #A99376",
"`  c #AC9479",
"'  c #AE9A79",
"]  c #A3977C",
"[  c #B0977A",
"{  c #B39B7B",
"}  c #B89F7E",
"|  c #B6A07C",
" . c #BAA27F",
".. c #476380",
"X. c #486581",
"o. c #496884",
"O. c #4C758C",
"+. c #4D788E",
"@. c #4E7D91",
"#. c #4F8193",
"$. c #508596",
"%. c #A49D82",
"&. c #AFA789",
"*. c #ABA387",
"=. c #B0A585",
"-. c #BEA581",
";. c #B9A986",
":. c #B5AD8E",
">. c #BCB492",
",. c #C0A782",
"<. c #C5AC84",
"1. c #C8AE85",
"2. c #CBB187",
"3. c #CEB588",
"4. c #CFB88C",
"5. c #C4B189",
"6. c #D0B689",
"7. c #D3B98C",
"8. c #C3B793",
"9. c #C2BA96",
"0. c #C5BC98",
"q. c #D5BE91",
"w. c #D8BF90",
"e. c #D7C093",
"r. c #D9C496",
"t. c #D0C69F",
"y. c #DBC798",
"u. c #DDC99B",
"i. c #E1CE9F",
"p. c #D4CAA1",
"a. c #DBCEA3",
"s. c #D7CFAF",
"d. c #DDD2A7",
"f. c #D4CFBA",
"g. c #DED6BA",
"h. c #E1CFA0",
"j. c #E4D3A4",
"k. c #E3D6A8",
"l. c #E7D8A9",
"z. c #EADCAC",
"x. c #EBDFB0",
"c. c #EDE0AF",
"v. c #EDE1B1",
"b. c #EFE4B9",
"n. c #F1E5B3",
"m. c #F5E9B6",
"M. c #F0E6BD",
"N. c #D5D6D9",
"B. c #D1D2D4",
"V. c #F1E7C1",
"C. c #F1E8C4",
"Z. c #F3EBCC",
"A. c #F5EED3",
"S. c #F6F0D7",
"D. c #F6F1DB",
"F. c #F9F3DE",
"G. c #E8E7E2",
"H. c #EFEDE3",
"J. c #ECECEB",
"K. c #F9F4E3",
"L. c #FAF7E9",
"P. c #FBF9EE",
"I. c #EDEEF0",
"U. c #FDFBF3",
"Y. c #FFFEFD",
"T. c None",
/* pixels */
"T.T.T.T.T.T.T.T.T.T.T.T.T.T.T.T.T.T.T.T.T.T.T.T.T.T.T.T.T.T.T.T.T.T.T.T.T.T.T.T.T.T.T.T.T.T.T.T.T.T.T.T.T.T.T.T.T.T.T.T.T.T.T.T.",
"T.T.T.T.T.T.T.T.T.T.T.T.T.T.T.T.T.T.T.T.T.T.T.T.T.T.T.T.T.T.T.T.T.T.T.T.T.T.T.T.T.T.T.T.T.T.T.T.T.T.T.T.T.T.T.T.T.T.T.T.T.T.T.T.",
"T.T.T.T.T.T.T.T.T.T.T.T.T.T.T.T.T.T.T.T.T.T.T.T.T.T.T.T.T.T.T.T.T.T.T.T.T.T.T.T.T.T.T.T.T.T.T.T.T.T.T.T.T.T.T.T.T.T.T.T.T.T.T.T.",
"T.T.T.T.T.T.T.T.T.T.T.T.T.T.T.T.T.T.T.T.T.T.T.T.T.T.T.T.T.T.T.T.T.T.T.T.T.T.T.T.T.T.T.T.T.T.T.T.T.T.T.T.T.T.T.T.T.T.T.T.T.T.T.T.",
"T.T.T.T.T.T.T.T.T.T.T.T.T.T.T.T.T.T.T.T.T.T.T.T.T.T.T.T.T.T.T.T.T.T.T.T.T.T.T.T.T.T.T.T.T.T.T.T.T.T.T.T.T.T.T.T.T.T.T.T.T.T.T.T.",
"T.T.T.T.T.T.T.T.T.T.T.T.T.T.T.T.T.T.T.T.T.T.T.T.T.T.T.T.T.T.T.T.T.T.T.T.T.T.T.T.T.T.T.T.T.T.T.T.T.T.T.T.T.T.T.T.T.T.T.T.T.T.T.T.",
"T.T.T.T.T.T.T.T.T.T.T.T.T.T.T.T.T.T.T.T.T.T.T.T.T.T.T.T.T.T.T.T.T.T.T.T.T.T.T.T.T.T.T.T.T.T.T.T.T.T.T.T.T.T.T.T.T.T.T.T.T.T.T.T.",
"T.T.T.T.T.T.T.T.T.T.T.T.T.T.T.T.T.T.T.T.T.T.T.T.. . . O O O O O O O O O X . T.T.T.T.T.T.T.T.T.T.T.T.T.T.T.T.T.T.T.T.T.T.T.T.T.T.",
"T.T.T.T.T.T.T.T.T.T.T.T.T.T.T.T.T.T.T.T.T.T.. .   o @ h =.:.:.:.:.:.:.>.S + O . T.T.T.T.T.T.T.T.T.T.T.T.T.T.T.T.T.T.T.T.T.T.T.T.",
"T.T.T.T.T.T.T.T.T.T.T.T.T.T.T.T.T.T.T.T.T.. . $ & G B.x.v.n.n.v.v.n.v.n.d.0.z O . T.T.T.T.T.T.T.T.T.T.T.T.T.T.T.T.T.T.T.T.T.T.T.",
"T.T.T.T.T.T.T.T.T.T.T.T.T.T.T.T.T.T.T.. . . w ;.f.J.F.n.v.v.v.v.v.v.v.v.v.n.d.z - O T.T.T.T.T.T.T.T.T.T.T.T.T.T.T.T.T.T.T.T.T.T.",
"T.T.T.T.T.T.T.T.T.T.T.T.T.T.T.T.T.T.. O ; f t.Z.Y.L.v.v.v.v.v.v.v.v.v.v.v.v.v.d.p.s O T.T.T.T.T.T.T.T.T.T.T.T.T.T.T.T.T.T.T.T.T.",
"T.T.T.T.T.T.T.T.T.T.T.T.T.T.T.T.T.T.. O _ k.Z.Y.Y.F.c.v.v.v.v.c.v.v.v.v.v.v.v.v.v.s.; . T.T.T.T.T.T.T.T.T.T.T.T.T.T.T.T.T.T.T.T.",
"T.T.T.T.T.T.T.T.T.T.T.T.T.T.T.T.T.X . q ;.b.U.Y.Y.L.Z.b.v.c.v.v.v.v.v.v.v.v.v.v.n.H.G o . T.T.T.T.T.T.T.T.T.T.T.T.T.T.T.T.T.T.T.",
"T.T.T.T.T.T.T.T.T.T.T.T.T.T.T.T.. . w | y.b.Y.U.P.Y.Y.A.V.Z.b.v.v.C.v.v.v.v.V.b.v.U.I.G o   T.T.T.T.T.T.T.T.T.T.T.T.T.T.T.T.T.T.",
"T.T.T.T.T.T.T.T.T.T.T.T.T.T.T.T.. X R 7.l.b.Y.L.Z.Y.P.V.L.Y.V.v.M.U.Z.v.v.v.K.Z.v.U.Y.N.1 p T.T.T.T.T.T.T.T.T.T.T.T.T.T.T.T.T.T.",
"T.T.T.T.T.T.T.T.T.T.T.T.T.T.T.T.X . E 7.l.M.Y.L.Z.Y.D.c.K.Y.C.v.F.Y.L.v.v.C.U.Z.v.Z.F.G.%.E X T.T.T.T.T.T.T.T.T.T.T.T.T.T.T.T.T.",
"T.T.T.T.T.T.T.T.T.T.T.T.T.T.T.X X a  .7.l.n.S.L.M.Z.V.v.C.U.C.b.U.Y.L.v.v.D.Y.Z.c.c.v.Z.z.E X T.T.T.T.T.T.T.T.T.T.T.T.T.T.T.T.T.",
"T.T.T.T.T.T.T.T.T.T.T.T.T.T.T.X . L 7.7.z.v.v.V.v.v.v.v.c.V.v.v.Z.Z.V.v.v.S.K.b.v.v.v.v.n.] . . T.T.T.T.T.T.T.T.T.T.T.T.T.T.T.T.",
"T.T.T.T.T.T.T.T.T.T.T.T.T.T.. 5 5 K 7.7.z.v.v.v.j.i.v.v.v.v.v.v.v.z.v.v.v.b.v.v.v.v.v.v.n.&.# . T.T.T.T.T.T.T.T.T.T.T.T.T.T.T.T.",
"T.T.T.T.T.T.T.T.T.T.T.T.T.T.. y u L 7.7.l.n.c.v.j.u.x.v.v.v.v.v.v.v.v.v.v.c.v.v.z.z.v.v.v.h.c . T.T.T.T.T.T.T.T.T.T.T.T.T.T.T.T.",
"T.T.T.T.T.T.T.T.T.T.T.T.T..   y P { 6.7.l.z.v.v.h.u.v.x.v.v.v.x.v.v.z.v.v.c.v.c.u.z.v.v.v.z.U . X T.T.T.T.T.T.T.T.T.T.T.T.T.T.T.",
"T.T.T.T.T.T.T.T.T.T.T.T.T.X . r Y -.7.6.h.y.z.n.j.i.x.n.v.v.v.v.v.l.y.v.v.v.v.c.y.j.v.v.v.n.*.; . T.T.T.T.T.T.T.T.T.T.T.T.T.T.T.",
"T.T.T.T.T.T.T.T.T.T.T.T.X . . r Y } 6.6.6.7.z.v.n.x.v.x.v.v.x.n.v.j.r.x.v.v.v.c.r.z.v.v.v.x.v.I   T.T.T.T.T.T.T.T.T.T.T.T.T.T.T.",
"T.T.T.T.T.T.T.T.T.T.T.T.X   $ g Y -.6.3.6.q.z.v.z.l.v.x.x.n.x.x.v.l.r.v.v.v.v.c.h.l.v.v.v.v.x.] ; . T.T.T.T.T.T.T.T.T.T.T.T.T.T.",
"T.T.T.T.T.T.T.T.T.T.T.. X   5 Y Y _ 1.6.6.7.h.v.j.u.v.v.v.v.v.v.v.l.y.v.v.v.v.v.j.x.v.x.j.v.h.7.c   T.T.T.T.T.T.T.T.T.T.T.T.T.T.",
"T.T.T.T.T.T.T.T.T.T.T.. . - L ) Y Y _ 1.-.2.7.a.r.u.n.x.v.v.x.n.v.u.7.j.v.v.v.v.w.l.v.l.r.z.r.7.l   T.T.T.T.T.T.T.T.T.T.T.T.T.T.",
"T.T.T.T.T.T.T.T.T.T.. . - R 6.<.) Y Y -.) 1.6.6.6.u.j.l.x.n.x.x.l.7.4.7.j.v.v.h.7.i.x.z.q.w.7.,.H ; . T.T.T.T.T.T.T.T.T.T.T.T.T.",
"T.T.T.T.T.T.T.T.T.. = / :.u.4.6.` Y Y ) ! 1.6.6.6.7.q.q.r.r.z.x.z.7.6.3.7.y.y.7.6.6.w.w.6.<.} { Y Y 5   T.T.T.T.T.T.T.T.T.T.T.T.",
"T.T.T.T.T.T.X O O = *.v.n.j.6.4.1.) Y Y Y _ 1.6.6.6.6.6.6.6.q.w.w.6.6.6.4.3.2.3.6.6.6.6.6.-.R ! _ 1.' > . T.T.T.T.T.T.T.T.T.T.T.",
"T.T.T.T.T.T.. Q 9.9.z.v.v.c.u.4.6.1.<.,.) Y ) [ 6.6.6.3.6.2.6.6.4.6.6.-.{ 3.v T 1.2.2.6.<.) T _ 3.6.6.' 6   T.T.T.T.T.T.T.T.T.T.",
"T.T.T.T.T.T.. ( v.n.v.v.v.z.k.q.6.6.6.6.<.<.1.1.6.6.2.[ -.` <.6.1.1.2.} Y R 0 $ H ) ) 1.6.<.1.2.6.6.6.j.0.e ; 2 T.T.T.T.T.T.T.T.",
"T.T.T.T.T.T.. = *.z.c.z.j.4.A C h.y.6.6.3.3.7.3.6.6.} Y  .` <.2._ ) ) Y Y a o . g R ) 1.6.6.6.6.,.' 3.j.c.d.p.t.W O T.T.T.T.T.T.",
"T.T.T.T.T.T.T.. = 8.l.e.3.H = / c.y.6.| 4.e.3.3.6.6.[ R -.2.3.4.1.3.-.) Y 5 . . # L 3.6.6.6.r.7.L = n { d.n.m.>.$ . T.T.T.T.T.T.",
"T.T.T.T.T.T.T.. O H ) E v . k x.z.r._ 0 0.z.y.r.w.6. . .7.3.3.3.6.6.6.6.H . . . . $ T 6.r.i.x.j.7.v $ O K &.:.Q O T.T.T.T.T.T.T.",
"T.T.T.T.T.T.T.T.T.X X . = k ( v.i._ > # 0.n.v.v.j.6.6.3.3.e.u.u.r.y.u.<.p . . . . . # ~ z.n.x.x.j.r.H i i # . X . T.T.T.T.T.T.T.",
"T.T.T.T.T.T.T.T.T.T.T.. ; &.n.0.W > O k d.v.v.v.j.6.6.w.u.z.v.v.v.m.a.k . . * < + . . = %.v.n.n.n.n.j.u.L # . . T.T.T.T.T.T.T.T.",
"T.T.T.T.T.T.T.T.T.T.T.T.. 1 I f   . O >.m.v.v.z.r.6.w.l.v.v.v.k.Q F g . . * 7 m 3 < o   - F F F F F I D $ . O T.T.T.T.T.T.T.T.T.",
"T.T.T.T.T.T.T.T.T.T.T.T.T..   . . . O p C V W e.4.e.l.v.v.x.Q k + . . . * 7 m m m m 3 o .   .           . . T.T.T.T.T.T.T.T.T.T.",
"T.T.T.T.T.T.T.T.T.T.T.T.T.T.. . . O . .     O y y a d d d s #   . . . * 7 M B O.N m 9 3 X . . . . . X X . T.T.T.T.T.T.T.T.T.T.T.",
"T.T.T.T.T.T.T.T.T.T.T.T.T.X . X O O X . X . .             . . . O @ 6 8 M X.$.$.N m m 8 + . . . . # X o X T.T.T.T.T.T.T.T.T.T.T.",
"T.T.T.T.T.T.T.T.T.T.T.T.T.. . q Z v 5 X . X + + + + + + + + + @ 6 8 M M B @.$.$.+.N M m 3 o . + c [ P Z ; . T.T.T.T.T.T.T.T.T.T.",
"T.T.T.T.T.T.T.T.T.T.T.T.X X q P R }  .w . + 4 8 8 9 m 8 7 9 9 9 M N B @.$.$.$.$.#.#.O.M 3 . O x <.7.2.) v # T.T.T.T.T.T.T.T.T.T.",
"T.T.T.T.T.T.T.T.T.T.T.T.. : P Y [ 6.6. .; . * M X.$.X.M N O.#.#.#.#.#.#.$.$.$.$.$.+.N 4 + . p 1.6.3.6.) J $ . T.T.T.T.T.T.T.T.T.",
"T.T.T.T.T.T.T.T.T.T.T.T.  5 Y Y { 6.4.2.> . @ M +.+.X.X.+.+.+.@.+.+.+.+.+.+.+.+.+.N 6 + . . w ;.7.3.1.) J % T.T.T.T.T.T.T.T.T.T.",
"T.T.T.T.T.T.T.T.T.T.T.T.  - H Y _ 2.7.^ = . @ 3 6 4 8 M m m m M M M M M m m M m 7 3 + . . . . i ' ,.) Y x # T.T.T.T.T.T.T.T.T.T.",
"T.T.T.T.T.T.T.T.T.T.T.T.T.. ; Z Y ` T ; . . . . . X , 4 3 3 3 3 3 3 3 3 3 3 3 3 @ . X X . O . . 5 g j j $ . T.T.T.T.T.T.T.T.T.T.",
"T.T.T.T.T.T.T.T.T.T.T.T.T.T.. : a p - . . . X . . . . . . . . . . . . . X . X . . . . . T.T.T.. . . . . . T.T.T.T.T.T.T.T.T.T.T.",
"T.T.T.T.T.T.T.T.T.T.T.T.T.T.T.T..   . T.T.X X . . . X T.T.T.T.T.T.T.T.T.. X . X . . X T.T.T.T.T.T.T.T.T.T.T.T.T.T.T.T.T.T.T.T.T.",
"T.T.T.T.T.T.T.T.T.T.T.T.T.T.T.T.T.T.T.T.T.T.. . X . T.T.T.T.T.T.T.T.T.T.T.. . . X X T.T.T.T.T.T.T.T.T.T.T.T.T.T.T.T.T.T.T.T.T.T.",
"T.T.T.T.T.T.T.T.T.T.T.T.T.T.T.T.T.T.T.T.T.T.. X X . T.T.T.T.T.T.T.T.T.T.T.. X . . T.T.T.T.T.T.T.T.T.T.T.T.T.T.T.T.T.T.T.T.T.T.T.",
"T.T.T.T.T.T.T.T.T.T.T.T.T.T.T.T.T.T.T.T.T.T.T.. . . T.T.T.T.T.T.T.T.T.T.T.T.. . . T.T.T.T.T.T.T.T.T.T.T.T.T.T.T.T.T.T.T.T.T.T.T.",
"T.T.T.T.T.T.T.T.T.T.T.T.T.T.T.T.T.T.T.T.T.T.T.. . T.T.T.T.T.T.T.T.T.T.T.T.T.X X T.T.T.T.T.T.T.T.T.T.T.T.T.T.T.T.T.T.T.T.T.T.T.T.",
"T.T.T.T.T.T.T.T.T.T.T.T.T.T.T.T.T.T.T.T.T.T.T.X X T.T.T.T.T.T.T.T.T.T.T.T.T.. . T.T.T.T.T.T.T.T.T.T.T.T.T.T.T.T.T.T.T.T.T.T.T.T.",
"T.T.T.T.T.T.T.T.T.T.T.T.T.T.T.T.T.T.T.T.T.T.T.T.T.T.T.T.T.T.T.T.T.T.T.T.T.T.T.T.T.T.T.T.T.T.T.T.T.T.T.T.T.T.T.T.T.T.T.T.T.T.T.T.",
"T.T.T.T.T.T.T.T.T.T.T.T.T.T.T.T.T.T.T.T.T.T.T.T.T.T.T.T.T.T.T.T.T.T.T.T.T.T.T.T.T.T.T.T.T.T.T.T.T.T.T.T.T.T.T.T.T.T.T.T.T.T.T.T.",
"T.T.T.T.T.T.T.T.T.T.T.T.T.T.T.T.T.T.T.T.T.T.T.T.T.T.T.T.T.T.T.T.T.T.T.T.T.T.T.T.T.T.T.T.T.T.T.T.T.T.T.T.T.T.T.T.T.T.T.T.T.T.T.T.",
"T.T.T.T.T.T.T.T.T.T.T.T.T.T.T.T.T.T.T.T.T.T.T.T.T.T.T.T.T.T.T.T.T.T.T.T.T.T.T.T.T.T.T.T.T.T.T.T.T.T.T.T.T.T.T.T.T.T.T.T.T.T.T.T.",
"T.T.T.T.T.T.T.T.T.T.T.T.T.T.T.T.T.T.T.T.T.T.T.T.T.T.T.T.T.T.T.T.T.T.T.T.T.T.T.T.T.T.T.T.T.T.T.T.T.T.T.T.T.T.T.T.T.T.T.T.T.T.T.T.",
"T.T.T.T.T.T.T.T.T.T.T.T.T.T.T.T.T.T.T.T.T.T.T.T.T.T.T.T.T.T.T.T.T.T.T.T.T.T.T.T.T.T.T.T.T.T.T.T.T.T.T.T.T.T.T.T.T.T.T.T.T.T.T.T.",
"T.T.T.T.T.T.T.T.T.T.T.T.T.T.T.T.T.T.T.T.T.T.T.T.T.T.T.T.T.T.T.T.T.T.T.T.T.T.T.T.T.T.T.T.T.T.T.T.T.T.T.T.T.T.T.T.T.T.T.T.T.T.T.T.",
"T.T.T.T.T.T.T.T.T.T.T.T.T.T.T.T.T.T.T.T.T.T.T.T.T.T.T.T.T.T.T.T.T.T.T.T.T.T.T.T.T.T.T.T.T.T.T.T.T.T.T.T.T.T.T.T.T.T.T.T.T.T.T.T.",
"T.T.T.T.T.T.T.T.T.T.T.T.T.T.T.T.T.T.T.T.T.T.T.T.T.T.T.T.T.T.T.T.T.T.T.T.T.T.T.T.T.T.T.T.T.T.T.T.T.T.T.T.T.T.T.T.T.T.T.T.T.T.T.T.",
"T.T.T.T.T.T.T.T.T.T.T.T.T.T.T.T.T.T.T.T.T.T.T.T.T.T.T.T.T.T.T.T.T.T.T.T.T.T.T.T.T.T.T.T.T.T.T.T.T.T.T.T.T.T.T.T.T.T.T.T.T.T.T.T."
};
